<svg width="48" height="48" viewBox="0 0 128 128" xmlns="http://www.w3.org/2000/svg">
  <defs>
    <linearGradient id="bg-48" x1="0" y1="0" x2="1" y2="1">
      <stop offset="0%" stop-color="#0F172A"></stop>
      <stop offset="100%" stop-color="#0B3B5E"></stop>
    </linearGradient>
  </defs>
  <rect x="8" y="8" width="112" height="112" rx="28" fill="url(#bg-48)"></rect>

  <!-- 地球 -->
  <circle cx="64" cy="56" r="30" fill="#FFFFFF"></circle>

  <g stroke="#BAE6FD" stroke-width="2" fill="none">
    <ellipse cx="64" cy="56" rx="26" ry="9"></ellipse>
    <ellipse cx="64" cy="56" rx="26" ry="16"></ellipse>
    <path d="M64 26 A30 30 0 0 1 64 86"></path>
    <path d="M64 26 A30 30 0 0 0 64 86"></path>
  </g>

  <!-- ネットワーク（少し簡略化） -->
  <g stroke="#38BDF8" stroke-width="2" stroke-linecap="round" fill="#38BDF8">
    <circle cx="52" cy="46" r="2.4"></circle>
    <circle cx="76" cy="44" r="2.4"></circle>
    <circle cx="82" cy="60" r="2.4"></circle>
    <circle cx="54" cy="68" r="2.4"></circle>
    <line x1="52" y1="46" x2="76" y2="44"></line>
    <line x1="76" y1="44" x2="82" y2="60"></line>
    <line x1="82" y1="60" x2="54" y2="68"></line>
    <line x1="54" y1="68" x2="52" y2="46"></line>
  </g>

  <!-- 双方向アーチ矢印 -->
  <g stroke="#38BDF8" stroke-width="5" stroke-linecap="round" stroke-linejoin="round" fill="none">
    <path d="M34 86 A34 26 0 0 0 94 86"></path>
    <path d="M86 80 L94 86 L86 92"></path>
    <path d="M94 74 A34 26 0 0 0 34 74"></path>
    <path d="M42 68 L34 74 L42 80"></path>
  </g>

  <!-- トークン（各アーチ2つに間引き） -->
  <g fill="#E0F2FE">
    <!-- 下側 -->
    <rect x="48" y="83" width="6" height="6" rx="1.5"></rect>
    <rect x="72" y="85" width="6" height="6" rx="1.5"></rect>
    <!-- 上側 -->
    <rect x="74" y="71" width="6" height="6" rx="1.5"></rect>
    <rect x="52" y="73" width="6" height="6" rx="1.5"></rect>
  </g>
</svg>
